Coordinates
version=1
nRows=43
nColumns=12
inDegrees=yes

Units are S.I. units (second, meters, Newtons, ...)
Angles are in degrees

endheader
time	SC_y	SC_z	SC_x	AC_y	AC_z	AC_x	GH_y	GH_z	GH_yy	EL_x	PS_y
       0.0               -38.1           17.2          79.19          45.83         -10.29         -8.346         -68.61          14.31          52.82          26.87           32.0
    0.0202               -38.1           17.2          79.19          45.83         -10.29         -8.346         -68.62          14.31          52.82          26.87          32.01
   0.04039              -38.09           17.2          79.18          45.83         -10.29         -8.346         -68.63          14.32          52.82          26.86          32.03
   0.06059              -38.09           17.2          79.18          45.84         -10.29         -8.346         -68.63          14.32          52.82          26.86          32.04
   0.08078              -38.09           17.2          79.17          45.84         -10.29         -8.346         -68.64          14.32          52.82          26.86          32.05
     0.101              -38.08           17.2          79.17          45.84         -10.29         -8.346         -68.65          14.33          52.83          26.86          32.07
    0.1212              -38.08           17.2          79.16          45.84         -10.29         -8.345         -68.66          14.33          52.83          26.85          32.09
    0.1414              -38.07           17.2          79.16          45.84         -10.29         -8.345         -68.67          14.33          52.83          26.85           32.1
    0.1616              -38.07           17.2          79.15          45.85         -10.29         -8.345         -68.68          14.34          52.83          26.85          32.12
    0.1818              -38.06           17.2          79.15          45.85         -10.29         -8.345         -68.69          14.34          52.84          26.84          32.14
     0.202              -38.06           17.2          79.14          45.85         -10.29         -8.345          -68.7          14.35          52.84          26.84          32.17
    0.2221              -38.05           17.2          79.13          45.85         -10.29         -8.345         -68.71          14.35          52.84          26.84          32.19
    0.2423              -38.04           17.2          79.12          45.86         -10.29         -8.345         -68.72          14.36          52.84          26.83          32.22
    0.2625              -38.04           17.2          79.11          45.86         -10.29         -8.345         -68.74          14.37          52.85          26.83          32.24
    0.2827              -38.03           17.2           79.1          45.86          -10.3         -8.344         -68.75          14.37          52.85          26.82          32.27
    0.3029              -38.02           17.2          79.09          45.87          -10.3         -8.344         -68.77          14.38          52.86          26.82          32.31
    0.3231              -38.01           17.2          79.08          45.87          -10.3         -8.344         -68.79          14.39          52.86          26.81          32.34
    0.3433               -38.0           17.2          79.07          45.88          -10.3         -8.344         -68.81           14.4          52.87           26.8          32.38
    0.3635              -37.99           17.2          79.06          45.88          -10.3         -8.344         -68.83          14.41          52.87           26.8          32.42
    0.3837              -37.98           17.2          79.04          45.89          -10.3         -8.343         -68.86          14.42          52.88          26.79          32.47
    0.4039              -37.96           17.2          79.03          45.89          -10.3         -8.343         -68.88          14.43          52.88          26.78          32.52
    0.4241              -37.95           17.2          79.01           45.9         -10.31         -8.343         -68.91          14.44          52.89          26.77          32.57
    0.4443              -37.93           17.2          78.99          45.91         -10.31         -8.342         -68.94          14.46           52.9          26.76          32.63
    0.4645              -37.91           17.2          78.97          45.92         -10.31         -8.342         -68.98          14.47          52.91          26.75           32.7
    0.4847              -37.89           17.2          78.94          45.93         -10.31         -8.341         -69.02          14.49          52.92          26.74          32.78
    0.5049              -37.87           17.2          78.91          45.94         -10.32         -8.341         -69.06          14.51          52.93          26.72          32.86
    0.5251              -37.85           17.2          78.88          45.95         -10.32          -8.34         -69.11          14.53          52.94          26.71          32.96
    0.5453              -37.82           17.2          78.85          45.96         -10.32          -8.34         -69.17          14.56          52.96          26.69          33.06
    0.5655              -37.79           17.2          78.81          45.97         -10.33         -8.339         -69.23          14.58          52.97          26.67          33.18
    0.5857              -37.75          17.21          78.77          45.99         -10.33         -8.338          -69.3          14.62          52.99          26.64          33.32
    0.6059              -37.71          17.21          78.72          46.01         -10.34         -8.337         -69.38          14.65          53.01          26.62          33.47
     0.626              -37.66          17.21          78.66          46.03         -10.34         -8.336         -69.48          14.69          53.03          26.59          33.65
    0.6462              -37.61          17.21          78.59          46.06         -10.35         -8.335         -69.59          14.74          53.06          26.55          33.86
    0.6664              -37.54          17.21          78.52          46.08         -10.36         -8.334         -69.71           14.8          53.09          26.51           34.1
    0.6866              -37.47          17.21          78.43          46.12         -10.37         -8.332         -69.86          14.86          53.13          26.46          34.38
    0.7068              -37.38          17.21          78.32          46.16         -10.38          -8.33         -70.03          14.94          53.17          26.41          34.71
     0.727              -37.28          17.22          78.19          46.21         -10.39         -8.328         -70.24          15.03          53.22          26.34           35.1
    0.7472              -37.15          17.22          78.04          46.26         -10.41         -8.325         -70.48          15.14          53.28          26.26          35.57
    0.7674               -37.0          17.22          77.86          46.33         -10.43         -8.322         -70.78          15.27          53.36          26.16          36.14
    0.7876              -36.82          17.23          77.64          46.41         -10.46         -8.318         -71.15          15.43          53.45          26.04          36.83
    0.8078              -36.59          17.23          77.36          46.52         -10.49         -8.313          -71.6          15.63          53.56           25.9          37.69
     0.828              -36.31          17.24          77.02          46.65         -10.52         -8.307         -72.16          15.87           53.7          25.72          38.76
    0.8482              -35.95          17.25          76.58          46.81         -10.57         -8.299         -72.86          16.19          53.88          25.49           40.1
